<mxfile host="app.diagrams.net" modified="2021-09-23T13:20:44.839Z" agent="5.0 (Windows NT 10.0; Win64; x64) AppleWebKit/537.36 (KHTML, like Gecko) Chrome/93.0.4577.82 Safari/537.36 Edg/93.0.961.52" etag="yWUAUlOMpH5D1Va3KCBi" version="15.3.0" type="github">
  <diagram id="IuiQKtxY05hrKO3h5HJ6" name="Page-1">
    <mxGraphModel dx="1422" dy="794" grid="1" gridSize="10" guides="1" tooltips="1" connect="1" arrows="1" fold="1" page="1" pageScale="1" pageWidth="1169" pageHeight="827" math="0" shadow="0">
      <root>
        <mxCell id="0" />
        <mxCell id="1" parent="0" />
        <mxCell id="FmqIyhPdbdMMwA7BeXr2-1" value="&lt;font size=&quot;1&quot;&gt;&lt;b style=&quot;line-height: 60% ; font-size: 28px&quot;&gt;Decomposition diagram for Sign up / Log in&amp;nbsp;&lt;/b&gt;&lt;/font&gt;" style="text;html=1;strokeColor=none;fillColor=none;align=center;verticalAlign=middle;whiteSpace=wrap;rounded=0;spacing=1;" parent="1" vertex="1">
          <mxGeometry x="250" y="50" width="670" height="60" as="geometry" />
        </mxCell>
        <mxCell id="FmqIyhPdbdMMwA7BeXr2-2" value="Open suite" style="rounded=0;whiteSpace=wrap;html=1;" parent="1" vertex="1">
          <mxGeometry x="525" y="140" width="120" height="40" as="geometry" />
        </mxCell>
        <mxCell id="FmqIyhPdbdMMwA7BeXr2-3" value="" style="endArrow=none;html=1;" parent="1" target="FmqIyhPdbdMMwA7BeXr2-2" edge="1">
          <mxGeometry width="50" height="50" relative="1" as="geometry">
            <mxPoint x="585" y="250" as="sourcePoint" />
            <mxPoint x="680" y="490" as="targetPoint" />
          </mxGeometry>
        </mxCell>
        <mxCell id="FmqIyhPdbdMMwA7BeXr2-4" value="" style="endArrow=none;html=1;" parent="1" edge="1">
          <mxGeometry width="50" height="50" relative="1" as="geometry">
            <mxPoint x="145" y="220.0006896551724" as="sourcePoint" />
            <mxPoint x="1025" y="220" as="targetPoint" />
          </mxGeometry>
        </mxCell>
        <mxCell id="FmqIyhPdbdMMwA7BeXr2-5" value="Login" style="rounded=0;whiteSpace=wrap;html=1;" parent="1" vertex="1">
          <mxGeometry x="90" y="240" width="120" height="40" as="geometry" />
        </mxCell>
        <mxCell id="FmqIyhPdbdMMwA7BeXr2-7" value="" style="endArrow=none;html=1;exitX=0.458;exitY=0;exitDx=0;exitDy=0;exitPerimeter=0;" parent="1" source="FmqIyhPdbdMMwA7BeXr2-5" edge="1">
          <mxGeometry width="50" height="50" relative="1" as="geometry">
            <mxPoint x="560" y="460" as="sourcePoint" />
            <mxPoint x="145" y="220" as="targetPoint" />
            <Array as="points" />
          </mxGeometry>
        </mxCell>
        <mxCell id="FmqIyhPdbdMMwA7BeXr2-8" value="Profile" style="rounded=0;whiteSpace=wrap;html=1;" parent="1" vertex="1">
          <mxGeometry x="525" y="240" width="120" height="40" as="geometry" />
        </mxCell>
        <mxCell id="FmqIyhPdbdMMwA7BeXr2-9" value="User Account controls" style="rounded=0;whiteSpace=wrap;html=1;" parent="1" vertex="1">
          <mxGeometry x="970" y="240" width="120" height="40" as="geometry" />
        </mxCell>
        <mxCell id="FmqIyhPdbdMMwA7BeXr2-10" value="" style="endArrow=none;html=1;exitX=0.458;exitY=0;exitDx=0;exitDy=0;exitPerimeter=0;" parent="1" source="FmqIyhPdbdMMwA7BeXr2-9" edge="1">
          <mxGeometry width="50" height="50" relative="1" as="geometry">
            <mxPoint x="1440" y="460" as="sourcePoint" />
            <mxPoint x="1025" y="220" as="targetPoint" />
            <Array as="points" />
          </mxGeometry>
        </mxCell>
        <mxCell id="FmqIyhPdbdMMwA7BeXr2-12" value="" style="endArrow=none;html=1;entryX=0;entryY=1;entryDx=0;entryDy=0;exitX=0;exitY=0;exitDx=0;exitDy=0;" parent="1" source="FmqIyhPdbdMMwA7BeXr2-17" target="FmqIyhPdbdMMwA7BeXr2-5" edge="1">
          <mxGeometry width="50" height="50" relative="1" as="geometry">
            <mxPoint x="90" y="450" as="sourcePoint" />
            <mxPoint x="590" y="420" as="targetPoint" />
          </mxGeometry>
        </mxCell>
        <mxCell id="FmqIyhPdbdMMwA7BeXr2-13" value="" style="endArrow=none;html=1;entryX=0;entryY=1;entryDx=0;entryDy=0;" parent="1" edge="1">
          <mxGeometry width="50" height="50" relative="1" as="geometry">
            <mxPoint x="150" y="400" as="sourcePoint" />
            <mxPoint x="149.71" y="280" as="targetPoint" />
          </mxGeometry>
        </mxCell>
        <mxCell id="FmqIyhPdbdMMwA7BeXr2-14" value="" style="endArrow=none;html=1;entryX=0;entryY=1;entryDx=0;entryDy=0;exitX=1;exitY=1;exitDx=0;exitDy=0;" parent="1" source="FmqIyhPdbdMMwA7BeXr2-5" target="FmqIyhPdbdMMwA7BeXr2-15" edge="1">
          <mxGeometry width="50" height="50" relative="1" as="geometry">
            <mxPoint x="210" y="360" as="sourcePoint" />
            <mxPoint x="210.00000000000003" y="280" as="targetPoint" />
          </mxGeometry>
        </mxCell>
        <mxCell id="FmqIyhPdbdMMwA7BeXr2-15" value="validation" style="rounded=0;whiteSpace=wrap;html=1;" parent="1" vertex="1">
          <mxGeometry x="210" y="320" width="120" height="40" as="geometry" />
        </mxCell>
        <mxCell id="FmqIyhPdbdMMwA7BeXr2-17" value="Database" style="rounded=0;whiteSpace=wrap;html=1;" parent="1" vertex="1">
          <mxGeometry x="90" y="470" width="120" height="40" as="geometry" />
        </mxCell>
        <mxCell id="FmqIyhPdbdMMwA7BeXr2-18" value="new entry" style="rounded=0;whiteSpace=wrap;html=1;" parent="1" vertex="1">
          <mxGeometry x="100" y="520" width="100" height="30" as="geometry" />
        </mxCell>
        <mxCell id="FmqIyhPdbdMMwA7BeXr2-20" value="" style="endArrow=none;html=1;entryX=0;entryY=1;entryDx=0;entryDy=0;exitX=0;exitY=0.5;exitDx=0;exitDy=0;" parent="1" source="FmqIyhPdbdMMwA7BeXr2-18" edge="1">
          <mxGeometry width="50" height="50" relative="1" as="geometry">
            <mxPoint x="80" y="590" as="sourcePoint" />
            <mxPoint x="90" y="500" as="targetPoint" />
            <Array as="points">
              <mxPoint x="90" y="535" />
            </Array>
          </mxGeometry>
        </mxCell>
        <mxCell id="FmqIyhPdbdMMwA7BeXr2-21" value="modify/update" style="rounded=0;whiteSpace=wrap;html=1;" parent="1" vertex="1">
          <mxGeometry x="100" y="560" width="100" height="30" as="geometry" />
        </mxCell>
        <mxCell id="FmqIyhPdbdMMwA7BeXr2-22" value="" style="endArrow=none;html=1;exitX=0;exitY=0.5;exitDx=0;exitDy=0;" parent="1" source="FmqIyhPdbdMMwA7BeXr2-21" edge="1">
          <mxGeometry width="50" height="50" relative="1" as="geometry">
            <mxPoint x="80" y="630" as="sourcePoint" />
            <mxPoint x="90" y="520" as="targetPoint" />
            <Array as="points">
              <mxPoint x="90" y="575" />
            </Array>
          </mxGeometry>
        </mxCell>
        <mxCell id="FmqIyhPdbdMMwA7BeXr2-23" value="select data" style="rounded=0;whiteSpace=wrap;html=1;" parent="1" vertex="1">
          <mxGeometry x="100" y="600" width="100" height="30" as="geometry" />
        </mxCell>
        <mxCell id="FmqIyhPdbdMMwA7BeXr2-24" value="" style="endArrow=none;html=1;exitX=0;exitY=0.5;exitDx=0;exitDy=0;" parent="1" source="FmqIyhPdbdMMwA7BeXr2-23" edge="1">
          <mxGeometry width="50" height="50" relative="1" as="geometry">
            <mxPoint x="80" y="670" as="sourcePoint" />
            <mxPoint x="90" y="560" as="targetPoint" />
            <Array as="points">
              <mxPoint x="90" y="615" />
            </Array>
          </mxGeometry>
        </mxCell>
        <mxCell id="FmqIyhPdbdMMwA7BeXr2-25" value="form" style="rounded=0;whiteSpace=wrap;html=1;" parent="1" vertex="1">
          <mxGeometry x="230.2" y="433.28" width="100" height="30" as="geometry" />
        </mxCell>
        <mxCell id="FmqIyhPdbdMMwA7BeXr2-26" value="login screen" style="rounded=0;whiteSpace=wrap;html=1;" parent="1" vertex="1">
          <mxGeometry x="230.2" y="473.28" width="100" height="30" as="geometry" />
        </mxCell>
        <mxCell id="FmqIyhPdbdMMwA7BeXr2-27" value="" style="endArrow=none;html=1;exitX=0;exitY=0.5;exitDx=0;exitDy=0;entryX=0.58;entryY=1.018;entryDx=0;entryDy=0;entryPerimeter=0;" parent="1" source="FmqIyhPdbdMMwA7BeXr2-26" edge="1">
          <mxGeometry width="50" height="50" relative="1" as="geometry">
            <mxPoint x="210.2" y="543.28" as="sourcePoint" />
            <mxPoint x="219.80000000000013" y="414" as="targetPoint" />
            <Array as="points">
              <mxPoint x="220.2" y="488.28" />
            </Array>
          </mxGeometry>
        </mxCell>
        <mxCell id="FmqIyhPdbdMMwA7BeXr2-28" value="success/error" style="rounded=0;whiteSpace=wrap;html=1;" parent="1" vertex="1">
          <mxGeometry x="230.2" y="513.28" width="100" height="30" as="geometry" />
        </mxCell>
        <mxCell id="FmqIyhPdbdMMwA7BeXr2-29" value="" style="endArrow=none;html=1;exitX=0;exitY=0.5;exitDx=0;exitDy=0;" parent="1" source="FmqIyhPdbdMMwA7BeXr2-28" edge="1">
          <mxGeometry width="50" height="50" relative="1" as="geometry">
            <mxPoint x="210.2" y="583.28" as="sourcePoint" />
            <mxPoint x="220.2" y="473.28" as="targetPoint" />
            <Array as="points">
              <mxPoint x="220.2" y="528.28" />
            </Array>
          </mxGeometry>
        </mxCell>
        <mxCell id="FmqIyhPdbdMMwA7BeXr2-30" value="validate username" style="rounded=0;whiteSpace=wrap;html=1;" parent="1" vertex="1">
          <mxGeometry x="210" y="560" width="130" height="30" as="geometry" />
        </mxCell>
        <mxCell id="FmqIyhPdbdMMwA7BeXr2-31" value="validate password" style="rounded=0;whiteSpace=wrap;html=1;" parent="1" vertex="1">
          <mxGeometry x="210" y="600" width="130" height="30" as="geometry" />
        </mxCell>
        <mxCell id="FmqIyhPdbdMMwA7BeXr2-32" value="" style="endArrow=none;html=1;exitX=1;exitY=0.5;exitDx=0;exitDy=0;" parent="1" source="FmqIyhPdbdMMwA7BeXr2-31" edge="1">
          <mxGeometry width="50" height="50" relative="1" as="geometry">
            <mxPoint x="340" y="637.5" as="sourcePoint" />
            <mxPoint x="350" y="352.5" as="targetPoint" />
            <Array as="points">
              <mxPoint x="350" y="615" />
            </Array>
          </mxGeometry>
        </mxCell>
        <mxCell id="FmqIyhPdbdMMwA7BeXr2-33" value="access granted/denied" style="rounded=0;whiteSpace=wrap;html=1;" parent="1" vertex="1">
          <mxGeometry x="210" y="640" width="130" height="30" as="geometry" />
        </mxCell>
        <mxCell id="FmqIyhPdbdMMwA7BeXr2-34" value="" style="endArrow=none;html=1;" parent="1" edge="1">
          <mxGeometry width="50" height="50" relative="1" as="geometry">
            <mxPoint x="340" y="655" as="sourcePoint" />
            <mxPoint x="350" y="600" as="targetPoint" />
            <Array as="points">
              <mxPoint x="350" y="655" />
            </Array>
          </mxGeometry>
        </mxCell>
        <mxCell id="FmqIyhPdbdMMwA7BeXr2-35" value="" style="endArrow=none;html=1;entryX=1;entryY=0.5;entryDx=0;entryDy=0;" parent="1" target="FmqIyhPdbdMMwA7BeXr2-15" edge="1">
          <mxGeometry width="50" height="50" relative="1" as="geometry">
            <mxPoint x="350" y="360" as="sourcePoint" />
            <mxPoint x="350" y="340" as="targetPoint" />
            <Array as="points">
              <mxPoint x="350" y="340" />
            </Array>
          </mxGeometry>
        </mxCell>
        <mxCell id="FmqIyhPdbdMMwA7BeXr2-36" value="" style="endArrow=none;html=1;entryX=0;entryY=1;entryDx=0;entryDy=0;exitX=0;exitY=0.5;exitDx=0;exitDy=0;" parent="1" edge="1">
          <mxGeometry width="50" height="50" relative="1" as="geometry">
            <mxPoint x="230.2" y="458.28" as="sourcePoint" />
            <mxPoint x="220.2" y="423.28" as="targetPoint" />
            <Array as="points">
              <mxPoint x="220.2" y="458.28" />
            </Array>
          </mxGeometry>
        </mxCell>
        <mxCell id="FmqIyhPdbdMMwA7BeXr2-37" value="" style="endArrow=none;html=1;entryX=0;entryY=1;entryDx=0;entryDy=0;exitX=1;exitY=0.75;exitDx=0;exitDy=0;" parent="1" source="FmqIyhPdbdMMwA7BeXr2-30" edge="1">
          <mxGeometry width="50" height="50" relative="1" as="geometry">
            <mxPoint x="360" y="580" as="sourcePoint" />
            <mxPoint x="350" y="545" as="targetPoint" />
            <Array as="points">
              <mxPoint x="350" y="580" />
            </Array>
          </mxGeometry>
        </mxCell>
        <mxCell id="FmqIyhPdbdMMwA7BeXr2-16" value="UI" style="rounded=0;whiteSpace=wrap;html=1;" parent="1" vertex="1">
          <mxGeometry x="150" y="380" width="120" height="40" as="geometry" />
        </mxCell>
        <mxCell id="FmqIyhPdbdMMwA7BeXr2-40" value="" style="endArrow=none;html=1;entryX=0;entryY=1;entryDx=0;entryDy=0;" parent="1" source="FmqIyhPdbdMMwA7BeXr2-44" edge="1">
          <mxGeometry width="50" height="50" relative="1" as="geometry">
            <mxPoint x="525" y="450" as="sourcePoint" />
            <mxPoint x="525" y="280" as="targetPoint" />
          </mxGeometry>
        </mxCell>
        <mxCell id="FmqIyhPdbdMMwA7BeXr2-41" value="" style="endArrow=none;html=1;entryX=0;entryY=1;entryDx=0;entryDy=0;" parent="1" edge="1">
          <mxGeometry width="50" height="50" relative="1" as="geometry">
            <mxPoint x="585" y="400" as="sourcePoint" />
            <mxPoint x="584.71" y="280" as="targetPoint" />
          </mxGeometry>
        </mxCell>
        <mxCell id="FmqIyhPdbdMMwA7BeXr2-44" value="Database" style="rounded=0;whiteSpace=wrap;html=1;" parent="1" vertex="1">
          <mxGeometry x="465" y="450" width="120" height="40" as="geometry" />
        </mxCell>
        <mxCell id="FmqIyhPdbdMMwA7BeXr2-45" value="retrieve user data" style="rounded=0;whiteSpace=wrap;html=1;" parent="1" vertex="1">
          <mxGeometry x="535" y="520" width="100" height="30" as="geometry" />
        </mxCell>
        <mxCell id="FmqIyhPdbdMMwA7BeXr2-46" value="" style="endArrow=none;html=1;exitX=0;exitY=0.5;exitDx=0;exitDy=0;" parent="1" source="FmqIyhPdbdMMwA7BeXr2-45" target="FmqIyhPdbdMMwA7BeXr2-44" edge="1">
          <mxGeometry width="50" height="50" relative="1" as="geometry">
            <mxPoint x="515" y="590" as="sourcePoint" />
            <mxPoint x="525" y="500" as="targetPoint" />
            <Array as="points">
              <mxPoint x="525" y="535" />
            </Array>
          </mxGeometry>
        </mxCell>
        <mxCell id="FmqIyhPdbdMMwA7BeXr2-47" value="load course details" style="rounded=0;whiteSpace=wrap;html=1;" parent="1" vertex="1">
          <mxGeometry x="535" y="560" width="100" height="30" as="geometry" />
        </mxCell>
        <mxCell id="FmqIyhPdbdMMwA7BeXr2-48" value="" style="endArrow=none;html=1;exitX=0;exitY=0.5;exitDx=0;exitDy=0;" parent="1" source="FmqIyhPdbdMMwA7BeXr2-47" edge="1">
          <mxGeometry width="50" height="50" relative="1" as="geometry">
            <mxPoint x="515" y="630" as="sourcePoint" />
            <mxPoint x="525" y="520" as="targetPoint" />
            <Array as="points">
              <mxPoint x="525" y="575" />
            </Array>
          </mxGeometry>
        </mxCell>
        <mxCell id="FmqIyhPdbdMMwA7BeXr2-51" value="Show Future Planning frame" style="rounded=0;whiteSpace=wrap;html=1;" parent="1" vertex="1">
          <mxGeometry x="665.2" y="433.28" width="100" height="30" as="geometry" />
        </mxCell>
        <mxCell id="FmqIyhPdbdMMwA7BeXr2-52" value="Show Projection frame" style="rounded=0;whiteSpace=wrap;html=1;" parent="1" vertex="1">
          <mxGeometry x="665.2" y="473.28" width="100" height="30" as="geometry" />
        </mxCell>
        <mxCell id="FmqIyhPdbdMMwA7BeXr2-53" value="" style="endArrow=none;html=1;exitX=0;exitY=0.5;exitDx=0;exitDy=0;entryX=0.58;entryY=1.018;entryDx=0;entryDy=0;entryPerimeter=0;" parent="1" source="FmqIyhPdbdMMwA7BeXr2-52" edge="1">
          <mxGeometry width="50" height="50" relative="1" as="geometry">
            <mxPoint x="645.2" y="543.28" as="sourcePoint" />
            <mxPoint x="654.8000000000002" y="414" as="targetPoint" />
            <Array as="points">
              <mxPoint x="655.2" y="488.28" />
            </Array>
          </mxGeometry>
        </mxCell>
        <mxCell id="FmqIyhPdbdMMwA7BeXr2-54" value="Show feed with entries" style="rounded=0;whiteSpace=wrap;html=1;" parent="1" vertex="1">
          <mxGeometry x="665.2" y="513.28" width="100" height="30" as="geometry" />
        </mxCell>
        <mxCell id="FmqIyhPdbdMMwA7BeXr2-55" value="" style="endArrow=none;html=1;exitX=0;exitY=0.5;exitDx=0;exitDy=0;" parent="1" source="FmqIyhPdbdMMwA7BeXr2-54" edge="1">
          <mxGeometry width="50" height="50" relative="1" as="geometry">
            <mxPoint x="645.2" y="583.28" as="sourcePoint" />
            <mxPoint x="655.2" y="473.28" as="targetPoint" />
            <Array as="points">
              <mxPoint x="655.2" y="528.28" />
            </Array>
          </mxGeometry>
        </mxCell>
        <mxCell id="FmqIyhPdbdMMwA7BeXr2-62" value="" style="endArrow=none;html=1;entryX=0;entryY=1;entryDx=0;entryDy=0;exitX=0;exitY=0.5;exitDx=0;exitDy=0;" parent="1" edge="1">
          <mxGeometry width="50" height="50" relative="1" as="geometry">
            <mxPoint x="665.2" y="458.28" as="sourcePoint" />
            <mxPoint x="655.2" y="423.28" as="targetPoint" />
            <Array as="points">
              <mxPoint x="655.2" y="458.28" />
            </Array>
          </mxGeometry>
        </mxCell>
        <mxCell id="FmqIyhPdbdMMwA7BeXr2-64" value="UI" style="rounded=0;whiteSpace=wrap;html=1;" parent="1" vertex="1">
          <mxGeometry x="585" y="380" width="120" height="40" as="geometry" />
        </mxCell>
        <mxCell id="FDy9W91ljYaSeHEoBIfX-1" value="validation" style="rounded=0;whiteSpace=wrap;html=1;" vertex="1" parent="1">
          <mxGeometry x="1000" y="300" width="120" height="40" as="geometry" />
        </mxCell>
        <mxCell id="FDy9W91ljYaSeHEoBIfX-2" value="Database" style="rounded=0;whiteSpace=wrap;html=1;" vertex="1" parent="1">
          <mxGeometry x="820" y="450" width="120" height="40" as="geometry" />
        </mxCell>
        <mxCell id="FDy9W91ljYaSeHEoBIfX-3" value="Download personal details" style="rounded=0;whiteSpace=wrap;html=1;" vertex="1" parent="1">
          <mxGeometry x="890" y="520" width="100" height="30" as="geometry" />
        </mxCell>
        <mxCell id="FDy9W91ljYaSeHEoBIfX-4" value="" style="endArrow=none;html=1;exitX=0;exitY=0.5;exitDx=0;exitDy=0;" edge="1" parent="1" source="FDy9W91ljYaSeHEoBIfX-3" target="FDy9W91ljYaSeHEoBIfX-2">
          <mxGeometry width="50" height="50" relative="1" as="geometry">
            <mxPoint x="870" y="590" as="sourcePoint" />
            <mxPoint x="880" y="500" as="targetPoint" />
            <Array as="points">
              <mxPoint x="880" y="535" />
            </Array>
          </mxGeometry>
        </mxCell>
        <mxCell id="FDy9W91ljYaSeHEoBIfX-5" value="Update personal details" style="rounded=0;whiteSpace=wrap;html=1;" vertex="1" parent="1">
          <mxGeometry x="890" y="560" width="100" height="30" as="geometry" />
        </mxCell>
        <mxCell id="FDy9W91ljYaSeHEoBIfX-6" value="" style="endArrow=none;html=1;exitX=0;exitY=0.5;exitDx=0;exitDy=0;" edge="1" parent="1" source="FDy9W91ljYaSeHEoBIfX-5">
          <mxGeometry width="50" height="50" relative="1" as="geometry">
            <mxPoint x="870" y="630" as="sourcePoint" />
            <mxPoint x="880" y="520" as="targetPoint" />
            <Array as="points">
              <mxPoint x="880" y="575" />
            </Array>
          </mxGeometry>
        </mxCell>
        <mxCell id="FDy9W91ljYaSeHEoBIfX-7" value="Show username and password" style="rounded=0;whiteSpace=wrap;html=1;" vertex="1" parent="1">
          <mxGeometry x="1020.2" y="433.28" width="100" height="30" as="geometry" />
        </mxCell>
        <mxCell id="FDy9W91ljYaSeHEoBIfX-8" value="Show account details" style="rounded=0;whiteSpace=wrap;html=1;" vertex="1" parent="1">
          <mxGeometry x="1020.2" y="473.28" width="100" height="30" as="geometry" />
        </mxCell>
        <mxCell id="FDy9W91ljYaSeHEoBIfX-9" value="" style="endArrow=none;html=1;exitX=0;exitY=0.5;exitDx=0;exitDy=0;entryX=0.58;entryY=1.018;entryDx=0;entryDy=0;entryPerimeter=0;" edge="1" parent="1" source="FDy9W91ljYaSeHEoBIfX-8">
          <mxGeometry width="50" height="50" relative="1" as="geometry">
            <mxPoint x="1000.2" y="543.28" as="sourcePoint" />
            <mxPoint x="1009.8000000000002" y="414" as="targetPoint" />
            <Array as="points">
              <mxPoint x="1010.2" y="488.28" />
            </Array>
          </mxGeometry>
        </mxCell>
        <mxCell id="FDy9W91ljYaSeHEoBIfX-10" value="Change buttons" style="rounded=0;whiteSpace=wrap;html=1;" vertex="1" parent="1">
          <mxGeometry x="1020.2" y="513.28" width="100" height="30" as="geometry" />
        </mxCell>
        <mxCell id="FDy9W91ljYaSeHEoBIfX-11" value="" style="endArrow=none;html=1;exitX=0;exitY=0.5;exitDx=0;exitDy=0;" edge="1" parent="1" source="FDy9W91ljYaSeHEoBIfX-10">
          <mxGeometry width="50" height="50" relative="1" as="geometry">
            <mxPoint x="1000.2" y="583.28" as="sourcePoint" />
            <mxPoint x="1010.1999999999998" y="473.28" as="targetPoint" />
            <Array as="points">
              <mxPoint x="1010.2" y="528.28" />
            </Array>
          </mxGeometry>
        </mxCell>
        <mxCell id="FDy9W91ljYaSeHEoBIfX-12" value="Confirm old details before allowing new" style="rounded=0;whiteSpace=wrap;html=1;" vertex="1" parent="1">
          <mxGeometry x="1000" y="560" width="130" height="30" as="geometry" />
        </mxCell>
        <mxCell id="FDy9W91ljYaSeHEoBIfX-13" value="Accept and check old details" style="rounded=0;whiteSpace=wrap;html=1;" vertex="1" parent="1">
          <mxGeometry x="1000" y="600" width="130" height="30" as="geometry" />
        </mxCell>
        <mxCell id="FDy9W91ljYaSeHEoBIfX-14" value="" style="endArrow=none;html=1;exitX=1;exitY=0.5;exitDx=0;exitDy=0;" edge="1" parent="1" source="FDy9W91ljYaSeHEoBIfX-13">
          <mxGeometry width="50" height="50" relative="1" as="geometry">
            <mxPoint x="1130" y="637.5" as="sourcePoint" />
            <mxPoint x="1140" y="352.5" as="targetPoint" />
            <Array as="points">
              <mxPoint x="1140" y="615" />
            </Array>
          </mxGeometry>
        </mxCell>
        <mxCell id="FDy9W91ljYaSeHEoBIfX-15" value="Update details to database" style="rounded=0;whiteSpace=wrap;html=1;" vertex="1" parent="1">
          <mxGeometry x="1000" y="640" width="130" height="30" as="geometry" />
        </mxCell>
        <mxCell id="FDy9W91ljYaSeHEoBIfX-16" value="" style="endArrow=none;html=1;" edge="1" parent="1">
          <mxGeometry width="50" height="50" relative="1" as="geometry">
            <mxPoint x="1130" y="655" as="sourcePoint" />
            <mxPoint x="1140" y="600" as="targetPoint" />
            <Array as="points">
              <mxPoint x="1140" y="655" />
            </Array>
          </mxGeometry>
        </mxCell>
        <mxCell id="FDy9W91ljYaSeHEoBIfX-17" value="" style="endArrow=none;html=1;entryX=1;entryY=0.5;entryDx=0;entryDy=0;" edge="1" parent="1" target="FDy9W91ljYaSeHEoBIfX-1">
          <mxGeometry width="50" height="50" relative="1" as="geometry">
            <mxPoint x="1140" y="360" as="sourcePoint" />
            <mxPoint x="1140" y="340" as="targetPoint" />
            <Array as="points">
              <mxPoint x="1140" y="340" />
            </Array>
          </mxGeometry>
        </mxCell>
        <mxCell id="FDy9W91ljYaSeHEoBIfX-18" value="" style="endArrow=none;html=1;entryX=0;entryY=1;entryDx=0;entryDy=0;exitX=0;exitY=0.5;exitDx=0;exitDy=0;" edge="1" parent="1">
          <mxGeometry width="50" height="50" relative="1" as="geometry">
            <mxPoint x="1020.1999999999998" y="458.28" as="sourcePoint" />
            <mxPoint x="1010.1999999999998" y="423.28" as="targetPoint" />
            <Array as="points">
              <mxPoint x="1010.2" y="458.28" />
            </Array>
          </mxGeometry>
        </mxCell>
        <mxCell id="FDy9W91ljYaSeHEoBIfX-19" value="" style="endArrow=none;html=1;entryX=0;entryY=1;entryDx=0;entryDy=0;exitX=1;exitY=0.75;exitDx=0;exitDy=0;" edge="1" parent="1" source="FDy9W91ljYaSeHEoBIfX-12">
          <mxGeometry width="50" height="50" relative="1" as="geometry">
            <mxPoint x="1150" y="580" as="sourcePoint" />
            <mxPoint x="1140" y="545" as="targetPoint" />
            <Array as="points">
              <mxPoint x="1140" y="580" />
            </Array>
          </mxGeometry>
        </mxCell>
        <mxCell id="FDy9W91ljYaSeHEoBIfX-20" value="UI" style="rounded=0;whiteSpace=wrap;html=1;" vertex="1" parent="1">
          <mxGeometry x="940" y="380" width="120" height="40" as="geometry" />
        </mxCell>
        <mxCell id="FDy9W91ljYaSeHEoBIfX-21" value="" style="endArrow=none;html=1;entryX=0;entryY=1;entryDx=0;entryDy=0;exitX=0.5;exitY=0;exitDx=0;exitDy=0;" edge="1" parent="1" source="FDy9W91ljYaSeHEoBIfX-2">
          <mxGeometry width="50" height="50" relative="1" as="geometry">
            <mxPoint x="970" y="450" as="sourcePoint" />
            <mxPoint x="970" y="280" as="targetPoint" />
            <Array as="points">
              <mxPoint x="880" y="280" />
            </Array>
          </mxGeometry>
        </mxCell>
        <mxCell id="FDy9W91ljYaSeHEoBIfX-22" value="" style="endArrow=none;html=1;entryX=0.128;entryY=1;entryDx=0;entryDy=0;exitX=0.383;exitY=-0.025;exitDx=0;exitDy=0;exitPerimeter=0;entryPerimeter=0;" edge="1" parent="1" source="FDy9W91ljYaSeHEoBIfX-20" target="FmqIyhPdbdMMwA7BeXr2-9">
          <mxGeometry width="50" height="50" relative="1" as="geometry">
            <mxPoint x="1030" y="400" as="sourcePoint" />
            <mxPoint x="1029.71" y="280" as="targetPoint" />
            <Array as="points" />
          </mxGeometry>
        </mxCell>
        <mxCell id="FDy9W91ljYaSeHEoBIfX-23" value="" style="endArrow=none;html=1;exitX=1;exitY=1;exitDx=0;exitDy=0;" edge="1" parent="1">
          <mxGeometry width="50" height="50" relative="1" as="geometry">
            <mxPoint x="1090" y="280" as="sourcePoint" />
            <mxPoint x="1090" y="300" as="targetPoint" />
          </mxGeometry>
        </mxCell>
      </root>
    </mxGraphModel>
  </diagram>
</mxfile>
